<?xml version="1.0" encoding="utf-8"?>
<!-- Generator: Adobe Illustrator 23.0.1, SVG Export Plug-In . SVG Version: 6.00 Build 0)  -->
<svg version="1.1" id="Layer_1" xmlns="http://www.w3.org/2000/svg" xmlns:xlink="http://www.w3.org/1999/xlink" x="0px" y="0px"
	 viewBox="0 0 216 15.7" style="enable-background:new 0 0 216 15.7;" xml:space="preserve">
<style type="text/css">
	.st0{fill:#FFFFFF;}
</style>
	<path class="st0" d="M125.2,15.1V1h2.8l6.1,9.2V1h3v14.1h-2.8l-6.1-9.2v9.2H125.2z"/>
	<path class="st0" d="M139.9,15.1V1h9.2v2.6H143v3.1h5.6v2.6H143v3.3h6.3V15L139.9,15.1z"/>
	<path class="st0" d="M155.1,15.1V3.5h-4.2V1h11.3v2.6H158v11.5H155.1z"/>
	<path class="st0" d="M164.1,14.4v-1.6c1.3,0.6,2.7,0.9,4.1,0.9c0.9,0.1,1.8-0.2,2.5-0.6c0.6-0.4,0.9-1.1,0.9-1.8
	c0-0.5-0.2-1-0.6-1.4c-0.6-0.5-1.3-0.9-2-1.1l-1.5-0.6c-1-0.3-1.9-0.9-2.7-1.6C164.3,6,164,5.3,164,4.5c0-1.1,0.5-2.1,1.3-2.8
	c1.1-0.7,2.3-1.1,3.6-1c0.7,0,1.3,0.1,2,0.2c0.6,0.1,1.2,0.3,1.7,0.6v1.6c-1.1-0.5-2.4-0.8-3.6-0.9c-2.1,0-3.2,0.7-3.2,2.1
	c0,0.5,0.2,0.9,0.6,1.2c0.6,0.5,1.3,0.8,2,1.1l1.5,0.6c1,0.3,2,0.9,2.8,1.7c0.5,0.6,0.8,1.4,0.8,2.3c0.1,1.1-0.4,2.2-1.3,2.9
	c-1.1,0.8-2.4,1.1-3.7,1.1c-0.5,0-1,0-1.5-0.1s-1-0.2-1.5-0.3C164.8,14.8,164.4,14.6,164.1,14.4z"/>
	<path class="st0" d="M175.7,8.7V1h1.8v7.7c0,1.7,0.3,3,0.9,3.8c1.4,1.5,3.8,1.7,5.3,0.3c0.1-0.1,0.2-0.2,0.3-0.3
	c0.6-0.8,0.9-2.1,0.9-3.8V1h1.8v7.8c0,2.3-0.5,3.9-1.4,5s-2.3,1.6-4.1,1.6s-3.2-0.5-4.1-1.6C176.2,12.7,175.7,11,175.7,8.7z"/>
	<path class="st0" d="M189.7,15.1V1h1.8v14.1H189.7z"/>
	<path class="st0" d="M198.4,15.1V2.5H194V1h10.7v1.5h-4.5V15h-1.8V15.1z"/>
	<path class="st0" d="M207.1,15.1V1h8.7v1.5h-6.9v4.6h6.3v1.5h-6.3v4.8h7.1v1.5h-8.9V15.1z"/>
	<path class="st0" d="M49.7,10.1h7.6l-4-6.5l-7.4,11.7h-3.4l9-14c0.7-1,2-1.2,3-0.5C54.7,0.9,54.9,1,55,1.2l9,14.1h-3.4L59,12.7h-7.7
	L49.7,10.1 M84.6,12.7V0.5h-2.9v13.4c0,0.4,0.2,0.7,0.4,1c0.3,0.3,0.6,0.4,1,0.4h13l1.7-2.6L84.6,12.7 M37.5,10.5c2.8,0,5-2.2,5-5
	s-2.2-5-5-5H25v14.8h2.9V3.1h9.4c1.3,0.1,2.3,1.2,2.3,2.5c-0.1,1.2-1,2.2-2.3,2.3h-8l8.5,7.4h4.1l-5.7-4.8L37.5,10.5 M7.5,15.3h8.6
	c4.1,0,7.4-3.3,7.4-7.4s-3.3-7.4-7.4-7.4H7.5C3.4,0.5,0,3.8,0,7.9S3.4,15.3,7.5,15.3 M15.9,12.7H7.6C5,12.6,2.9,10.4,3,7.7
	c0.1-2.5,2.1-4.5,4.6-4.6h8.3c2.6-0.1,4.9,2,5,4.6s-2,4.9-4.6,5C16.1,12.7,16,12.7,15.9,12.7 M70,15.3h8.8l1.7-2.6H70.2
	c-2.6,0.1-4.9-2-5-4.6s2-4.9,4.6-5c0.1,0,0.2,0,0.3,0h8.4l1.7-2.6H70c-4.1,0-7.4,3.3-7.4,7.4S65.9,15.3,70,15.3 M104.9,12.7
	c-2.1,0-4-1.4-4.6-3.5h12.2l1.7-2.6h-13.9c0.6-2.1,2.5-3.5,4.6-3.5h8.4l1.7-2.6h-10.2c-4.1,0-7.4,3.3-7.4,7.4s3.3,7.4,7.4,7.4l0,0
	h8.8l1.7-2.6L104.9,12.7"/>
</svg>